<?xml version="1.0" encoding="UTF-8"?>
<!DOCTYPE svg PUBLIC "-//W3C//DTD SVG 1.1//EN" "http://www.w3.org/Graphics/SVG/1.1/DTD/svg11.dtd">
<svg version="1.1" xmlns="http://www.w3.org/2000/svg" xmlns:xlink="http://www.w3.org/1999/xlink" width="440" height="150"  xml:space="preserve" id="curveCanvas">
    <!-- Generated by PaintCode - http://www.paintcodeapp.com -->
    <path id="curveCanvas-attackTouchArea" stroke="none" fill="rgb(255, 255, 255)" d="M 0,152 L 125.66,152 125.66,1 0,1 0,152 Z M 0,152" transform=""  />
    <path id="curveCanvas-decaySustainTouchArea" stroke="none" fill="rgb(255, 255, 255)" d="M 125.66,151 L 308,151 308,0 125.66,0 125.66,151 Z M 125.66,151" transform="translate(0, -1)"  />
    <path id="curveCanvas-releaseTouchArea" stroke="none" fill="rgb(255, 255, 255)" d="M 308,151 L 440,151 440,0 308,0 308,151 Z M 308,151" transform=""  />
    <path id="curveCanvas-releaseArea" stroke="none" fill="rgb(184, 132, 226)" d="M 308,151 C 308,151 481.02,151 445.98,151 305.84,151 308,88.03 308,88.03 L 308,151 Z M 308,151" transform="translate(0, -1)"  />
    <path id="curveCanvas-sustainArea" stroke="none" fill="rgb(82, 204, 157)" d="M 206.36,151 L 308,151 308,88.03 206.36,88.03 206.36,151 Z M 206.36,151" transform="translate(0, -1)"  />
    <path id="curveCanvas-decayArea" stroke="none" fill="rgb(240, 165, 0)" d="M 69.66,149 L 150.36,149 C 150.36,149 150.52,86.13 150.36,86.03 59.36,86.23 69.66,0 69.66,0 L 69.66,149 Z M 69.66,149" transform="translate(56, 1)"  />
    <path id="curveCanvas-attackArea" stroke="none" fill="rgb(196, 0, 0)" d="M 0,152 L 125.66,152 125.66,3 C -13.78,3 0,152 0,152 Z M 0,152" transform="translate(0, -1)"  />
    <path id="curveCanvas-curve" stroke="rgb(0, 0, 0)" stroke-width="3.02" stroke-miterlimit="10" fill="none" d="M 0,151 C 0,151 -14.78,2 125.66,2 125.66,2 116.36,88.23 206.36,88.03 L 308,88.03 C 308,88.03 306.84,151 445.98,151" transform="translate(0, -1)"  />
</svg>

