<?xml version="1.0" encoding="UTF-8"?>
<!DOCTYPE svg PUBLIC "-//W3C//DTD SVG 1.1//EN" "http://www.w3.org/Graphics/SVG/1.1/DTD/svg11.dtd">
<svg version="1.1" xmlns="http://www.w3.org/2000/svg" xmlns:xlink="http://www.w3.org/1999/xlink" width="199" height="358"  xml:space="preserve" id="fullWatch">
    <!-- Generated by PaintCode - http://www.paintcodeapp.com -->
    <defs>
        <linearGradient id="fullWatch-linearGradient1-rect80794" x1="94.77" y1="282.57" x2="93.86" y2="163.2" gradientUnits="userSpaceOnUse" >
            <stop offset="0" stop-color="rgb(24, 24, 24)" stop-opacity="1" />
            <stop offset="1" stop-color="rgb(24, 24, 24)" stop-opacity="0" />
        </linearGradient>
    </defs>
    <g id="fullWatch-group" clip-path="url(#fullWatch-rectangle2)">
        <clipPath id="fullWatch-rectangle2">
            <rect x="0" y="-358" width="199" height="358"  transform="translate(0, 358)" />
        </clipPath>
        <g id="fullWatch-appleWatchFrame">
            <g id="fullWatch-applewatchflatbysvgstock">
                <g id="fullWatch-layer1">
                    <g id="fullWatch-g17264">
                        <g id="fullWatch-g62376">
                            <path id="fullWatch-path80615" fill-rule="evenodd" stroke="none" fill="rgb(251, 0, 7)" d="M 42.29,7.73 C 38.16,11.82 37.91,19.58 37.56,24.5 34.34,69.18 24.43,67.05 18.12,74.49 L 90.49,72.06 90.49,72.34 171.42,74.88 C 165.12,67.44 155.2,69.57 151.99,24.89 151.63,19.97 151.85,11.68 147.25,8.13 133.23,-2.7 53.93,-3.8 42.29,7.73 L 42.29,7.73 Z M 42.29,7.73" />
                            <path id="fullWatch-rect80638" fill-rule="evenodd" stroke="none" fill="rgb(178, 178, 178)" d="M 187.6,184.43 L 191.93,184.43 C 192.14,184.43 192.31,184.6 192.31,184.81 L 192.31,241 C 192.31,241.21 192.14,241.38 191.93,241.38 L 187.6,241.38 C 187.39,241.38 187.22,241.21 187.22,241 L 187.22,184.81 C 187.22,184.6 187.39,184.43 187.6,184.43 L 187.6,184.43 Z M 187.6,184.43" />
                            <path id="fullWatch-path80651" fill-rule="evenodd" stroke="none" fill="rgb(251, 0, 7)" d="M 42.29,349.72 C 38.16,345.63 37.91,337.88 37.56,332.95 34.34,288.27 24.43,290.4 18.12,282.96 L 90.49,285.4 90.49,285.12 171.42,282.57 C 165.12,290.01 155.2,287.88 151.99,332.56 151.63,337.48 151.85,345.77 147.25,349.32 133.23,360.15 53.93,361.25 42.29,349.72 L 42.29,349.72 Z M 42.29,349.72" />
                            <path id="fullWatch-rect80672" fill-rule="evenodd" stroke="rgb(135, 135, 135)" stroke-width="2.25" stroke-miterlimit="4" fill="rgb(197, 197, 197)" fill-opacity="0.55" d="M 36.64,68.06 L 152.39,68.06 C 172.64,68.06 188.95,84.36 188.95,104.59 L 188.95,254.04 C 188.95,274.28 172.64,290.57 152.39,290.57 L 36.64,290.57 C 16.39,290.57 0.09,274.28 0.09,254.04 L 0.09,104.59 C 0.09,84.36 16.39,68.06 36.64,68.06 L 36.64,68.06 Z M 36.64,68.06" />
                            <path id="fullWatch-rect80691" fill-rule="evenodd" stroke="none" fill="rgb(197, 197, 197)" d="M 36.64,68.06 L 152.39,68.06 C 172.64,68.06 188.95,84.36 188.95,104.59 L 188.95,254.04 C 188.95,274.28 172.64,290.57 152.39,290.57 L 36.64,290.57 C 16.39,290.57 0.09,274.28 0.09,254.04 L 0.09,104.59 C 0.09,84.36 16.39,68.06 36.64,68.06 L 36.64,68.06 Z M 36.64,68.06" />
                            <path id="fullWatch-rect80714" fill-rule="evenodd" stroke="none" fill="rgb(38, 38, 38)" d="M 37.78,75.89 L 151.26,75.89 C 168.45,75.89 182.3,89.73 182.3,106.92 L 182.3,251.72 C 182.3,268.9 168.45,282.74 151.26,282.74 L 37.78,282.74 C 20.58,282.74 6.74,268.9 6.74,251.72 L 6.74,106.92 C 6.74,89.73 20.58,75.89 37.78,75.89 L 37.78,75.89 Z M 37.78,75.89" />
                            <path id="fullWatch-path80739" fill-rule="evenodd" stroke="none" fill="rgb(83, 83, 83)" d="M 189.7,119.67 C 184.45,119.67 183.19,130.6 183.11,137.64 L 183.09,137.64 183.09,137.92 183.09,138.53 183.09,139.15 183.09,139.43 183.11,139.43 C 183.19,146.47 184.45,157.4 189.7,157.4 L 193.51,157.4 C 195.12,157.4 198.35,155.11 198.35,151.13 198.35,150.71 198.33,144.97 198.32,139.43 L 198.32,137.64 C 198.33,132.09 198.35,126.35 198.35,125.94 198.35,121.95 195.12,119.67 193.51,119.67 L 189.7,119.67 189.7,119.67 Z M 189.7,119.67" />
                            <path id="fullWatch-path80758" fill-rule="evenodd" stroke="none" fill="rgb(203, 203, 203)" d="M 195.09,119.83 C 194.88,119.78 194.64,119.67 194.47,119.67 L 191.15,119.67 C 185.91,119.67 184.65,130.6 184.57,137.64 L 184.54,137.64 184.54,137.92 184.54,138.53 184.54,139.15 184.54,139.43 184.57,139.43 C 184.65,146.47 185.91,157.4 191.15,157.4 L 194.47,157.4 C 194.64,157.4 194.88,157.28 195.09,157.23 L 195.09,119.83 Z M 195.09,119.83" />
                            <path id="fullWatch-path80772" fill-rule="evenodd" stroke="none" fill="rgb(178, 178, 178)" d="M 195.09,119.83 L 195.09,157.23 C 196.79,156.8 199.32,154.68 199.32,151.13 199.32,150.71 199.3,144.97 199.29,139.43 L 199.29,137.64 C 199.3,132.09 199.32,126.35 199.32,125.94 199.32,122.38 196.79,120.27 195.09,119.83 L 195.09,119.83 Z M 195.09,119.83" />
                            <path id="fullWatch-rect80794" fill-rule="evenodd" stroke="none" fill="url(#fullWatch-linearGradient1-rect80794)" d="M 37.78,75.89 L 151.26,75.89 C 168.45,75.89 182.3,89.73 182.3,106.92 L 182.3,251.72 C 182.3,268.9 168.45,282.74 151.26,282.74 L 37.78,282.74 C 20.58,282.74 6.74,268.9 6.74,251.72 L 6.74,106.92 C 6.74,89.73 20.58,75.89 37.78,75.89 L 37.78,75.89 Z M 37.78,75.89" />
                        </g>
                    </g>
                </g>
            </g>
        </g>
        <circle id="fullWatch-oval" stroke="none" fill="rgb(255, 255, 255)" cx="88" cy="273" r="3" />
        <circle id="fullWatch-oval2" stroke="none" fill="rgb(164, 164, 164)" cx="102" cy="273" r="3" />
        
        <text  fill="rgb(255, 0, 0)" font-family="Avenir-Light, Avenir, sans-serif" font-size="9" x="17" y="79"><tspan x="17" y="98">Heart.Watch</tspan></text>
        
        <text  fill="rgb(170, 170, 170)" font-family="Avenir-Light, Avenir, sans-serif" font-size="9" x="148.94" y="78" text-anchor="end"><tspan x="170" y="97">10:09</tspan></text>
        <path id="fullWatch-playButton" stroke="none" fill="rgb(255, 255, 255)" fill-opacity="0.43" d="M 73.5,132.5 L 73.5,224.5 140.5,178.5 73.5,132.5 Z M 111.27,128.55 C 132.58,135.41 148,155.41 148,179 148,208.27 124.27,232 95,232 65.73,232 42,208.27 42,179 42,149.73 65.73,126 95,126 100.68,126 106.15,126.89 111.27,128.55 Z M 111.27,128.55" />
        <rect id="fullWatch-rectangle" stroke="none" fill="rgb(255, 255, 255)" fill-opacity="0.43" x="61" y="168" width="1" height="1" />
    </g>
    <g id="fullWatch-group2" transform="scale(0.49, 0.49)" >
        <rect id="fullWatch-maximumBackground" stroke="none" fill="rgb(217, 41, 61)" x="34.67" y="206.62" width="140" height="67" />
        <rect id="fullWatch-hardBackground" stroke="none" fill="rgb(242, 171, 21)" x="34.67" y="273.62" width="140" height="67" />
        <rect id="fullWatch-moderateBackground" stroke="none" fill="rgb(42, 160, 84)" x="34.67" y="340.62" width="140" height="67" />
        <rect id="fullWatch-lightBackground" stroke="none" fill="rgb(54, 155, 227)" x="34.67" y="407.62" width="140" height="67" />
        <rect id="fullWatch-veryLightBackground" stroke="none" fill="rgb(164, 164, 164)" x="34.67" y="474.62" width="140" height="67" />
        
        <text  fill="rgb(255, 255, 255)" font-family="Avenir-Light, Avenir, sans-serif" font-size="19" x="50.67" y="206.62"><tspan x="50.67" y="228.62">MAXIMUM</tspan></text>
        
        <text  fill="rgb(255, 255, 255)" font-family="Avenir-Light, Avenir, sans-serif" font-size="19" x="50.67" y="273.62"><tspan x="50.67" y="295.62">HARD</tspan></text>
        
        <text  fill="rgb(255, 255, 255)" font-family="Avenir-Light, Avenir, sans-serif" font-size="19" x="50.67" y="340.62"><tspan x="50.67" y="362.62">MODERATE</tspan></text>
        
        <text  fill="rgb(255, 255, 255)" font-family="Avenir-Light, Avenir, sans-serif" font-size="19" x="50.67" y="474.62"><tspan x="50.67" y="496.62">VERY LIGHT</tspan></text>
        
        <text  fill="rgb(255, 255, 255)" font-family="Avenir-Light, Avenir, sans-serif" font-size="19" x="50.67" y="407.62"><tspan x="50.67" y="429.62">LIGHT</tspan></text>
        
        <text  fill="rgb(255, 255, 255)" font-family="Avenir-Heavy, Avenir, sans-serif" font-weight="bold" font-size="19" x="50.67" y="239.62"><tspan x="50.67" y="262.62">90﹣100% </tspan></text>
        
        <text  fill="rgb(255, 255, 255)" font-family="Avenir-Heavy, Avenir, sans-serif" font-weight="bold" font-size="19" x="50.67" y="307.62"><tspan x="50.67" y="330.62">80﹣90%</tspan></text>
        
        <text  fill="rgb(255, 255, 255)" font-family="Avenir-Heavy, Avenir, sans-serif" font-weight="bold" font-size="19" x="50.67" y="374.62"><tspan x="50.67" y="397.62">70﹣80%</tspan></text>
        
        <text  fill="rgb(255, 255, 255)" font-family="Avenir-Heavy, Avenir, sans-serif" font-weight="bold" font-size="19" x="50.67" y="441.62"><tspan x="50.67" y="464.62">60﹣70%</tspan></text>
        
        <text  fill="rgb(255, 255, 255)" font-family="Avenir-Heavy, Avenir, sans-serif" font-weight="bold" font-size="19" x="50.67" y="508.62"><tspan x="50.67" y="531.62">50﹣60%</tspan></text>
        <rect id="fullWatch-maximumBackground2" stroke="none" fill="rgb(217, 41, 61)" x="175.67" y="206.62" width="171" height="67" />
        <rect id="fullWatch-hardBackground2" stroke="none" fill="rgb(242, 171, 21)" x="175.67" y="273.62" width="171" height="67" />
        <rect id="fullWatch-moderateBackground2" stroke="none" fill="rgb(42, 160, 84)" x="175.67" y="340.62" width="171" height="67" />
        <rect id="fullWatch-lightBackground2" stroke="none" fill="rgb(54, 155, 227)" x="175.67" y="407.62" width="171" height="67" />
        <rect id="fullWatch-veryLightBackground2" stroke="none" fill="rgb(164, 164, 164)" x="175.67" y="474.62" width="171" height="67" />
        <rect id="fullWatch-bottomTransparentCover" stroke="none" fill="rgb(255, 255, 255)" fill-opacity="0.42" x="0" y="-268" width="312" height="268"  transform="translate(34.67, 541.62)" />
        <rect id="fullWatch-topTransparentCover" stroke="none" fill="rgb(255, 255, 255)" fill-opacity="0.42" x="34.67" y="206.62" width="312" height="1" />
    </g>
</svg>
