<?xml version="1.0" encoding="UTF-8"?>
<!DOCTYPE svg PUBLIC "-//W3C//DTD SVG 1.1//EN" "http://www.w3.org/Graphics/SVG/1.1/DTD/svg11.dtd">
<svg version="1.1" xmlns="http://www.w3.org/2000/svg" xmlns:xlink="http://www.w3.org/1999/xlink" width="259" height="53"  xml:space="preserve" id="canvas1">
    <!-- Generated by PaintCode - http://www.paintcodeapp.com -->
    <rect id="canvas1-background" stroke="none" fill="rgb(34, 34, 34)" x="0" y="0" width="259" height="53" />
    <path id="canvas1-triangle" stroke="rgb(237, 136, 0)" stroke-width="2" stroke-miterlimit="10" fill="none" d="M 13.19,28 L 19.19,20 31.19,36 41.19,20 48.19,28" />
    <path id="canvas1-square" stroke="rgb(136, 136, 136)" stroke-width="2" stroke-miterlimit="10" fill="none" d="M 70.55,28 L 70.55,20 81.55,20 81.55,36 92.55,36 92.55,20 103.55,20 103.55,28" />
    <path id="canvas1-highPWMValue" stroke="rgb(136, 136, 136)" stroke-width="2" stroke-miterlimit="10" fill="none" d="M 136.46,28 L 136.46,20 142.46,20 142.46,37 153.46,37 153.46,20 159.46,20 159.46,28" />
    <path id="canvas1-sawtooth" stroke="rgb(136, 136, 136)" stroke-width="2" stroke-miterlimit="10" fill="none" d="M 192.53,29 L 201.53,20 201.53,38 218.53,20 218.53,38 229.13,29" />
    <rect id="canvas1-chosenArea" stroke="rgb(255, 255, 255)" stroke-width="1" stroke-miterlimit="10" fill="rgb(255, 255, 255)" fill-opacity="0.18" x="6" y="4.5" width="259.2" height="43" />
</svg>
